<svg xmlns="http://www.w3.org/2000/svg" viewBox="0 0 1322.29 260.12"><defs><style>.cls-1{fill:#231f20;}</style></defs><g id="Layer_2" data-name="Layer 2"><g id="icons"><path class="cls-1" d="M1309.35,96.15c-31.26-2.1-83.07,8.49-110.81,14.89-6.21,2-12.43,3.91-18.71,5.62-6.79,1.9-13.62,3.62-20.48,5.22s-13.73,3.06-20.63,4.39-13.82,2.52-20.77,3.47c6.84-1.53,13.62-3.29,20.37-5.17s13.45-3.89,20.1-6q7-2.26,14-4.73c-13.63-3.39-44.14-10.36-69.88-11.8-47.14-2.64-88.55-22.91-102.64-31.06-12.83-7.41-23.35-13.21-27.32-22.46s11-18.95,11-18.95c-12.78-7.71-32.38-5.06-45.16-3.08A348.3,348.3,0,0,1,899.52,30c.93.29,1.87.57,2.8.87q8.92,2.79,17.74,5.95A155,155,0,0,1,937.33,44a154,154,0,0,0-17.78-5.48q-9-2.32-18.12-4.25t-18.24-3.7c-2.11-.41-4.22-.79-6.33-1.18-30.63-3.29-165.49-22.8-176.09-24C689.54,4,560-2,526.32.67S365.75,22.48,347.25,28.42,225,60.14,210.47,63.44,139.1,81,108.7,87.23s-37.16,23.3-38.49,27.26c-1,3.1-3.17,11.14-5.79,16.08a7.38,7.38,0,0,0,.69.68l.71.67.77.62a26.32,26.32,0,0,0,7,4l2,.66a20.13,20.13,0,0,0,2,.52,34.55,34.55,0,0,0,4.21.7,19.08,19.08,0,0,0,2.14.16l2.17.09c1.45,0,2.9-.12,4.37-.18-1.41.35-2.84.72-4.28,1.05l-2.19.34a18.74,18.74,0,0,1-2.22.29,35.66,35.66,0,0,1-4.51.14,21.94,21.94,0,0,1-2.29-.11l-2.29-.28a31,31,0,0,1-9-2.91l-1.08-.56-1-.63c-.44-.26-.87-.56-1.29-.86-6.61,3.37-26,8.16-26,8.16C1.33,146.7,0,161.57,0,161.57c-.33,14.54,15.86,16.19,18.84,16.52s28.74,4.3,32.71,5,22.81,3.2,25.44,3.47c11.4,1.15,17.18-.83,48.56,9.08,25.26,8,75.65,19.47,98.4,24.53l10.05,2q10.23,2,20.41,4.14-8.22-.3-16.42-.54c5.07,6,17.4,19.3,29.74,22.34,10.94,2.7,18.11-5.41,21.57-10.87-2.58-3.26-5.2-6.52-7.86-9.71-2-2.36-4-4.7-6.05-7s-4.23-4.3-6.51-6.38C264.3,210,259.54,206,254.74,202s-9.65-7.84-14.54-11.68q7.88,5,15.63,10.22c5.18,3.47,10.32,7,15.37,10.72,2.5,1.88,5,3.81,7.42,6s4.56,4.34,6.77,6.56c4.38,4.4,8.63,8.87,12.84,13.44,13.78,8.85,35.55,17.5,61.79,22,21.41,3.67,26.36-5.19,27.39-10.94a65.33,65.33,0,0,0-10.17-28.83,72.2,72.2,0,0,0-6.35-8.26,79.22,79.22,0,0,0-16.05-13.61,91.45,91.45,0,0,0-9.26-5.24,74.22,74.22,0,0,0-9.9-4,73.94,73.94,0,0,1,10.25,3.25,92.41,92.41,0,0,1,9.8,4.54,82,82,0,0,1,17.66,12.68,76.51,76.51,0,0,1,7.4,8.16,70.31,70.31,0,0,1,12.91,27.52c94.27,7.94,470.94-34.12,470.94-34.12s216.3-24.23,237-26.43c12.66-1.35,33.71-2,48.17-2.37,4.41-1.42,8.86-3,13.22-4.68,5.42-2.09,10.77-4.37,16-6.89a132.5,132.5,0,0,0,15.22-8.5,73.71,73.71,0,0,0,7-5.21,42.08,42.08,0,0,0,6.1-6.27,42.29,42.29,0,0,1-5.5,6.9,74.41,74.41,0,0,1-6.56,6,134.74,134.74,0,0,1-14.59,10.15c-4.89,3-9.91,5.74-15,8.33,8.42,5,41.56,19.54,57.75,24.13s19.82-1,19.82-1c-7.92-6.61-5.28-16.85-4.29-21.14s8.59-16.52,8.92-20.49,9.25-3.63,15.2-7.6,9.58-12.22,12.22-18.17,15.2-8.92,19.83-12.88,11.23-9.92,12.22-13.55,13.88-5.62,14.87-10.57S1309.35,96.15,1309.35,96.15Z"/></g></g></svg>