<svg xmlns="http://www.w3.org/2000/svg" viewBox="0 0 1352.95 467.6"><defs><style>.cls-1{fill:#231f20;}</style></defs><g id="Layer_2" data-name="Layer 2"><g id="icons"><path class="cls-1" d="M1328.49,38.64c-13.17-1.88-17.87-19.75-30.57-25.4-5.24-2.33-8.86-2.56-11.33-2.05a123.23,123.23,0,0,1-9.17,12.28c-3.42,4-7.15,7.82-11.72,10.35,4.09-3.21,7-7.49,9.72-11.82a118.87,118.87,0,0,0,7.08-13.57,1,1,0,0,1,0-.1,5.9,5.9,0,0,0-.15-.73c-.94-3.3-18.34.47-25.39-2.83s-3.3-5.17-4.71-4.7-20.22,19.76-26.81,27.75c-3.81,4.64-11.1,17.48-16.56,27.46-2.23,4.57-4.55,8.92-7,13.28-2.57,4.58-5.32,9.07-8.21,13.45a120.88,120.88,0,0,1-9.42,12.64c-3.42,3.95-7.15,7.82-11.72,10.35,4.09-3.21,7-7.49,9.72-11.81a119.85,119.85,0,0,0,7.08-13.58c.85-1.88,1.65-3.78,2.44-5.68-155.34,84.79-324.4,88.35-352,85.28-28.22-3.14-104.1-17.56-153-30.73S578.9,117.82,552.56,116.56s-237,3.76-249,3.76-75.88,6.28-89,1.26-79,0-96.58,5.64S83.47,133.5,49.6,146.66s-27.74,48.79-27.74,48.79l.24,1.67c3.45,2.44,22.06-1.85,22.06-1.85l-3.64,2.8c-1.29.84-2.58,1.71-3.91,2.52a40.84,40.84,0,0,1-8.77,3.82,30.69,30.69,0,0,1-9.27,1.28C13.09,212,3.67,223,1.86,226.31-.73,231-1.48,234.22,5.39,243,17.15,258.06,51,260.88,64.18,261.82S95.93,280.4,129.56,283s48.92,8.46,79.73,21.87c10.1,4.4,62.16,26.31,83.38,35.24-.64-5.94-1.29-11.83-1.54-17.91a42.22,42.22,0,0,1,0-4.77,9.72,9.72,0,0,1,.45-2.72,15.45,15.45,0,0,1,1-2.4,40.57,40.57,0,0,1,5.5-7.62,124.93,124.93,0,0,1,13-12.52,125,125,0,0,0-10.8,14.19,37.45,37.45,0,0,0-3.89,7.6,9.65,9.65,0,0,0-.45,1.82,6.54,6.54,0,0,0,0,1.72,41.88,41.88,0,0,0,.54,4.17c1,5.73,2.35,11.54,3.73,17.3.4,1.62.84,3.23,1.25,4.85l.22.09C321.93,438,402.84,467.6,402.84,467.6c28.79-21.21,35.91-65.29,37.59-81.65l-.56-2.36-1.1-3.22c-.75-2.14-1.41-4.32-2.24-6.45l-2.77-6.27A132.65,132.65,0,0,0,419.41,344a173.92,173.92,0,0,0-18.65-20.9,169.84,169.84,0,0,0-21.91-17.78,170.54,170.54,0,0,1,23.54,15.91,177.09,177.09,0,0,1,20.85,19.61,139.08,139.08,0,0,1,17.11,23.34l3.53,6.42c1.09,2.18,2,4.46,3,6.7l1.48,3.37c0,.09.06.18.09.27,36.18,6,196.68,30.43,343.35,14.69,295.26-31.7,379.57-205.55,387.1-218.72s44.68-71,44.68-71C1330.37,103.55,1353,37.23,1353,37.23A64.52,64.52,0,0,1,1328.49,38.64Z"/></g></g></svg>