<svg xmlns="http://www.w3.org/2000/svg" viewBox="0 0 2168.34 966.49"><defs><style>.cls-1{fill:#231f20;}</style></defs><g id="Layer_2" data-name="Layer 2"><g id="icons"><path class="cls-1" d="M2168,236.63c-5.77-11.44-84.87-13.43-108-16.29s-52-22.88-83.7-40c-19.86-10.73-55.52-11.39-80.16-10.38-1.75.09-3.5.18-5.26.29q-11.52.72-23.1,1.85c-15.41,1.49-30.83,3.35-46.2,5.71,14.83-4.71,29.83-9,45-12.84h0c-3.92-13.29-10-42.38-14.38-53.26-5.77-14.3-34.63-42.9-49.06-48.62s-28.88-50.41-52-61.84-11.54,61.84-17.31,79-8.66,131.55-8.66,131.55c-33.3,15.21-62.34,27.88-85.28,37.63a112.65,112.65,0,0,0-20.93,7.5c-30.88,15.44-38.6,12.54-42.46,16.4s-7.72,4.82-17.36,7.72-11.58,3.86-16.41,8.68-6.75,1-16.4,6.76-9.65,7.71-15.44,11.57-10.61-1-16.4,2.9-14.47,6.75-20.26,10.61-10.61,1-17.37,3.86-16.4,8.68-21.22,10.61-9.65,0-16.4,3.86-11.58,4.83-14.48,6.76-11.58,0-16.4,2.89-17.37,6.76-17.37,6.76-4.82-1.93-8.68,0-13.51,4.82-13.51,4.82l-8.68-1.93L1322.79,365s-58.85,8.68-79.11,8.68a8.59,8.59,0,0,1-4.66.32l-4.87.38L1214.06,376c-13.42,1.1-26.89,2.11-40.34,2.45C1187,376,1200,373,1213.06,369.82l19.61-4.77,3.42-.81c.26-4.46.83-6.7.83-8.94,0-2.89,4.34-17.85,5.31-23.64,3-18.12-8.69-17.36-29-7.72-14.18,6.76-26,9.65-30.87,13.51s-25.09,13.51-33.77,17.37-18.33,14.47-26.05,18.33a162.75,162.75,0,0,1-17.85,7.24s-26,7.72-50.17,16.4-39.56,7.72-57.89,12.54S933,420,910.81,422.84s-81,1-98.42,6.75-80.08,7.72-112.88,9.65-65.61-6.75-76.23-4.82-19.29,1-34.73,3.86-25.09,2.89-30.87,1.93-16.41-4.83-29.91-3.86-30.88-1.93-40.53-1.93-19.29-3.86-29.91-3.86h-28c-5.79,0-20.26-1.93-29.91-1.93H377.25c-9.65,0-7.72-1-14.47,1s-15.92,4.35-15.92,4.35-27.22-5.13-56,1.92c-25.57,6.28-61.27,15.92-65.13,15.92s-24.12,0-40.52,5.79-45.35,9.65-45.35,9.65-21.23,1-24.12,1.93-9.65-1-12.54,1-7.72,1-13.51,1-14.47,0-15.44,1-1.93,1-5.79,2.89S55,477.84,54,478.8s-5.79,1.93-7.72,2.89-7.72,0-8.68,1.93-6.76,3.86-7.72,3.86-5.79,0-8.68,1.93S4.82,498.1,4.82,501s-2.89,5.79-2.89,5.79a13.17,13.17,0,0,1,0,6.75A79.71,79.71,0,0,0,0,526.08c0,1.93,0,11.58,1,12.54s0,8.68,1,10.61,4.82,8.69,6.75,11.58,5.79,8.68,6.76,11.58,1.93,8.68,4.82,11.58a85.07,85.07,0,0,0,10.61,8.68,34.75,34.75,0,0,0,8.69,4.83A38.89,38.89,0,0,0,54,600.37c4.83,0,18.33,5.79,23.16,1.93l9.65-7.72s59.82,10.61,65.6,12.54,39.56,6.76,47.28,7.72,6.76,0,20.26,5.79,34.74,5.79,40.53,9.65,30.87,9.65,37.62,12.54,31.84,7.72,41.49,11.58,48.24,16.4,58.86,19.3,47.27,10.61,51.13,12.54,44.39,10.61,48.25,13.51,39.55,13.51,39.55,13.51l.08,0c3.62.93,7.25,1.87,10.88,2.78q13.5,3.38,27,6.54c18.08,4.15,36.24,8,54.62,10.91-18.61-.48-37.22-2-55.79-3.77q-9.27-.91-18.54-2c10.1,14.55,28.42,40.59,31.88,43.36,4.82,3.86,20.26,28,20.26,28s4.82,12.54,7.72,16.4,2.89,6.75,11.57,6.75,12.55,0,15.44,2.9,15.44,12.54,18.33,15.43,16.41,11.58,19.3,13.51,12.54,14.47,12.54,14.47,6.76,20.27,10.62,22.2,7.71,1,11.57,1.93a81.48,81.48,0,0,1,8.69,2.89S737.14,910.08,742,913s13.51,5.79,16.4,7.72,11.58,6.75,14.47,8.68,9.65,1,11.58,1,7.72,5.79,7.72,5.79,1,3.86,4.83,3.86a36.66,36.66,0,0,0,7.71-1l5.79-2.9s3.86,6.76,4.83,6.76,1.93-1,5.79,0,9.64-7.72,17.36-4.83,19.3,1.93,24.12,5.79,7.72,5.79,11.58,6.76,13.51,3.86,19.3,5.78S905,960.25,907,962.18s1.93,1.93,6.75,1,9.65-1.93,15.44-1,20.26-1,24.12-5.79,6.75-23.15-9.65-31.84-43.42-23.15-49.21-24.12-5.79,0-8.68-1-37.63-20.26-40.52-22.19,3.86,0-2.9-1.93-65.61-51.14-75.25-57.89-19.3-26.05-19.3-26.05-1,1-4.83-2.9-8.68-15.43-9.64-17.36-2.9-1.93-2.9-3.86a30.23,30.23,0,0,0-3-12c-1.24-1.36-2.48-2.72-3.74-4.07l-.86-.93a30.69,30.69,0,0,1-7.84-8.09l.28,0L710.3,737q-13.44-14.14-27.09-28.15c-4.54-4.66-9.1-9.33-13.69-13.91l-1.7-1.67-.9-.86c-.35-.33-.65-.66-.94-1a50.44,50.44,0,0,1-3.22-4c-2-2.67-3.85-5.41-5.61-8.21s-3.44-5.63-4.94-8.6c-.39-.73-.74-1.49-1.1-2.25a13.2,13.2,0,0,0-1.07-2,18.9,18.9,0,0,0-3.12-3.42c-2.38-2.1-5.11-3.93-7.69-6a30.53,30.53,0,0,1-6.85-7,30.36,30.36,0,0,0,7.37,6.28c2.71,1.77,5.58,3.32,8.29,5.29a20.85,20.85,0,0,1,3.77,3.47,15.1,15.1,0,0,1,1.49,2.19c.4.69.8,1.37,1.23,2.05,1.7,2.7,3.6,5.32,5.55,7.88s4,5.06,6.12,7.42c1.06,1.18,2.15,2.33,3.25,3.34a10.1,10.1,0,0,0,.82.71l.93.76,1.91,1.61c5,4.28,9.86,8.6,14.75,12.92q14.67,13,29.18,26.13c4.84,4.4,9.66,8.81,14.46,13.28,1.69,1.57,3.37,3.16,5.06,4.76,7.08,5.79,18,15,19.87,18.17,2.9,4.83,10.62,11.58,17.37,13.51s25.09,1.93,28.94,2.89,9.65,1.93,9.65,5.79A18.28,18.28,0,0,0,820.11,803c5.79,3.85,6.76,4.82,6.76,4.82s26,10.61,30.87,12.54,14.47,6.76,16.4,9.65l1.93,2.9s0,6.75,1.93,10.61,8.69,10.61,11.58,11.58,18.33,2.89,20.26,6.75,1,11.58,8.68,15.44,13.51,3.86,21.23,4.82,14.47,0,20.26,4.83,10.62,10.61,10.62,13.5-1,1,0,3.86,11.57,9.65,16.4,11.58,9.65,3.86,15.44,2.9,7.71-1,8.68,0,5.79,9.64,8.68,10.61,10.62-1.93,12.55-1,0,11.58,3.85,13.51,15.44-1.93,15.44,1.93,0,8.69,6.76,9.65,10.61,0,16.4,3.86,15.44,6.75,19.3,8.68,24.12-2.89,29.91-3.86,12.54-5.79,10.61-15.43-9.65-27-17.37-31.84-16.4-19.3-21.23-24.12-13.5-14.48-15.43-17.37-33.77-34.74-45.35-43.42-16.4-20.26-23.16-27-9.64-20.27-17.36-25.09c-7.34-4.58-11.19-12.64-17.35-16.74l-.49.45-1.53-1.71a25.53,25.53,0,0,1-8.61-9l.48,0-.61-.68-5.12-5.61-5.25-5.61c-3.53-3.81-7-7.6-10.52-11.65-.89-1-1.72-2-2.72-3.35l-.18-.24-.08-.11h0s.08.07,0,0l-.08-.1-.18-.18c-.28-.26-.66-.59-1.08-.91-1.72-1.33-3.85-2.71-6-4.06-4.28-2.74-8.71-5.37-13.21-8.56a38.83,38.83,0,0,1-3.49-2.78c-.29-.25-.67-.64-.93-.89l-.46-.46c-.31-.3-.71-.62-1.1-.93a42.89,42.89,0,0,0-5.9-3.61c-4.36-2.28-9.08-4.38-13.79-6.75s-9.22-5-13.7-7.56-8.9-5.13-13.36-7.56c-2.24-1.22-4.48-2.4-6.74-3.52s-4.52-2.14-6.86-3.14c-4.67-2-9.45-3.77-14.27-5.55l-7.25-2.68c-1.22-.46-2.42-.91-3.7-1.47l-1-.48-.89-.5c-.6-.33-1.15-.68-1.71-1-4.46-2.76-8.68-5.72-12.87-8.76-2.09-1.52-4.16-3.06-6.2-4.66s-4.06-3.2-6-5a54.55,54.55,0,0,1-5.1-6c-1.57-2-3.11-4.11-4.63-6.19q-4.54-6.24-8.94-12.58,4.77,6.06,9.68,12c1.63,2,3.29,4,5,5.88a55.6,55.6,0,0,0,5.25,5.46c1.93,1.6,4,3.07,6.13,4.52s4.25,2.86,6.4,4.24c4.31,2.74,8.7,5.44,13.14,7.83.55.29,1.11.6,1.66.86l.82.39.77.32c1.1.42,2.33.8,3.55,1.17l7.37,2.23c4.94,1.49,9.88,3,14.8,4.76,2.46.88,4.93,1.82,7.37,2.85s4.79,2.09,7.14,3.2c4.72,2.21,9.34,4.53,13.94,6.81s9.19,4.59,13.74,6.54,9.41,3.78,14.31,6a52.34,52.34,0,0,1,7.49,4c.65.46,1.28.9,1.93,1.45l1,.84c.21.18.28.25.49.42a31.2,31.2,0,0,0,2.67,1.84c4.05,2.53,8.62,4.9,13.17,7.44,2.3,1.3,4.59,2.57,7.06,4.23.61.42,1.25.89,2,1.46l.53.46.6.58c.2.19.47.51.69.77l.21.25.12.14c.59.7,1.48,1.64,2.31,2.5,3.44,3.54,7.14,7.11,10.82,10.63l5.62,5.33,5.53,5.55,8.15,8.31c24.59-2.59,68.23-7.25,91.62-10.19h.08c.79-.22,2.08-.52,4.18-1l1.21-.16c5.16-1.1,7.85-1.63,9.27-1.81l9.71-2.29c53.07-12.55,94.55-29.91,108.06-31.84s129.29-42.46,142.8-49.21S1454,589.76,1454,589.76a45.15,45.15,0,0,0,12.54-8.69c5.79-5.79,43.42-33.77,45.35-35.7s2.89-1.93,2.89-1.93,6.76,1.93,9.65-2.89,1-8.68,10.62-13.51,15.43-10.61,23.15-15.44,56-78.15,64.65-90.69,32.8-59.82,39.55-65.61c4.6-3.94,19.13-20.44,27.87-31.46,13.68-9.17,61.06-40.81,78.27-50.55,20.2-11.44,124.07,24.26,152.94,27.12s63.5,2.86,77.93,2.86,60.61-14.3,83.7-20S2173.76,248.07,2168,236.63Z"/></g></g></svg>