<svg xmlns="http://www.w3.org/2000/svg" viewBox="0 0 1172.17 351.74"><defs><style>.cls-1{fill:#231f20;}</style></defs><g id="Layer_2" data-name="Layer 2"><g id="icons"><path class="cls-1" d="M1156.11,332.89c-15.48-10.1-24.23-48.8-29.95-65.29a49.14,49.14,0,0,0-12.63-19.33l-2.18-1c-3.74-1.65-7.63-3.16-11.56-4.56-7.89-2.76-16-5.22-24.11-7.4q12.61,1.08,25.21,3.1c3.9.66,7.8,1.43,11.71,2.36,8.92-6.87,4.76-26.32,8.51-34.4,3.18-6.84,11.12-7.64,15.25-7.57-9.17-.57-40.67-2.09-60.34,2.19-23.22,5.05-49.13,6.06-49.13,6.06s-22.21-27.6-31.3-39.38S971,135.68,961.94,131s-38.37-24.23-38.37-24.23C825.3,22.61,671.85,9.82,609.25,1.74S421.47,15.88,399.93,23.28s-98.27,6.06-131.25.67-55,11.67-64.84,18-144.48,79-165.12,93.33S5.52,181.9,5.52,181.9a7.15,7.15,0,0,0,.16,5.78c-19.85,23.22,18.68,34.6,18.68,34.6,106.37,28.83,317.24,33.77,356.42,34.46v0c-2.75-4.61-5.35-9.28-7.85-14s-4.92-9.46-7.2-14.27c2.92,4.44,6,8.8,9.08,13.09s6.31,8.53,9.62,12.64c.72.89,1.46,1.76,2.18,2.65h.54l.51.63c50.44,61.93,120.46,56.35,132.31,53.89s-6.73-23.33-10.55-32.53a64.16,64.16,0,0,1-4.48-17.28h.17c-.79-3.5-1.57-7-2.34-10.44-1.27-5.53-2.56-10.94-4.92-15.76a34.32,34.32,0,0,0-10.77-12.13,112.76,112.76,0,0,0-14.62-8.78,115.17,115.17,0,0,1,15.83,6.91,37.72,37.72,0,0,1,13.38,11.74c3.38,5.11,5.48,10.72,7.48,16.12,1.53,4.17,3,8.28,4.54,12.37,94.63-.13,166.92-12.74,218.29-24.93,52.95-12.56,161.54-1.79,198.33,8.53s89.18,1.23,89.18,1.23c80.77,98.27,139.66,105.67,148.41,105.33S1171.59,343,1156.11,332.89Z"/></g></g></svg>