<svg xmlns="http://www.w3.org/2000/svg" viewBox="0 0 114.31 34.29"><g id="Layer_2" data-name="Layer 2"><g id="Layer_1-2" data-name="Layer 1"><path d="M107.53,21.67c-4,1.25-7.79-.81-11.45-2.52s-7.4-3.81-11.25-5.25A121.08,121.08,0,0,0,72.08,9.4,28.23,28.23,0,0,1,67.9,8.1a7.49,7.49,0,0,1-3.76-2C62.71,4.76,62.49,3,62.52,1.17c0-.16,0-.32,0-.47V.6a1.38,1.38,0,0,1-.06-.26h0L62.39.26,62.33.21l-.17-.1-.09,0L61.78,0h-.06c-.3,0-.61,0-.92,0-.57,0-1.14,0-1.71,0a39.07,39.07,0,0,0-4.51,1.11c-2.29.73-4.23,2.41-6.49,3.28a30.57,30.57,0,0,1-9,1.46,74.91,74.91,0,0,0-12.29,2c-.65.15-1.27.28-1.87.4-1.44.41-2.86.9-4.28,1.35-1.13.37-2.26.75-3.37,1.2-.31.13-.69.41-1.1.64a5.77,5.77,0,0,1-1.05.46,1.88,1.88,0,0,1-.23.16c-.26.13-.53.24-.81.35h0a63.24,63.24,0,0,1-6.41,3,1.69,1.69,0,0,1-.83.47l-.09,0-.31.15c-.21.13-.4.27-.6.41,0,0-.28.2-.36.27l-.36.32a7.2,7.2,0,0,0-.64.71l0,0-.15.2c-.14.21-.28.42-.41.63a11.91,11.91,0,0,0-.65,1.22c-.16.49-.06.13,0,0h0v0a2.85,2.85,0,0,1-.12.31c-.12.3-.25.61-.38.9a6.46,6.46,0,0,1-.91,1.36,1.66,1.66,0,0,1-.57.42A12,12,0,0,0,0,25.39c-.49,3.28,7.78,3.18,10.32,3.74a35.23,35.23,0,0,0,5.5,1c1.7.11,3.76-.76,5.5-.51,3.6.51,7.21,3.54,11,4.32.25,0,.48.11.7.17l.3.08.32.09h.11a4.8,4.8,0,0,0,1-.26l.15-.08.06-.21a.9.9,0,0,1-.08-.23,8.31,8.31,0,0,1-1.93-2.93c5.86.31,11.45-1.44,17.21-2.12,5.93-.7,11.87-.76,17.69-1.56,2-.27,3.65-.91,5.7-.94a53.8,53.8,0,0,0,5.8-.31c2-.25,4.17-.91,6.25-.76s3.85.77,6,.76c1.92,0,4.3.45,6,0,.88-.23,1.55-1.13,2.49-1.21s1.92.69,2.75.9c3.14.78,8.79,2.08,11.48-.14C110.9,24.8,109,25.58,107.53,21.67Z"/></g></g></svg>