<svg xmlns="http://www.w3.org/2000/svg" viewBox="0 0 738.87 314.82"><g id="Layer_2" data-name="Layer 2"><g id="Layer_12" data-name="Layer 12"><path d="M.85,127.87c1-8.23,12.09-8.06,19-10.25,5.16-1.63,9.94-4.14,14.79-6.44-1.42-4.65,1.73-9.85,4.78-14.09,8.2-11.34,20.7-17,34.05-19.52,14.46-2.77,29-5.31,43.54-7.35,12-1.67,24.44-3.35,36.68-3.36,16.17-1.3,32.64-.06,48.47,2.28,14.21,2.12,28.34,4.76,42.73,5.44,12.38.58,23.73-1.31,35.37-4.24,9.85-7.76,14.39-21.84,20.89-32.22,7.26-11.59,16.25-22.19,27.54-30,8.51-5.91,19.54-10.69,29.74-6.53.17.07.54.78.47.89a5,5,0,0,1,1.53,4.85c-.36,2.07-2.24,4.42-3.24,6.23a80.2,80.2,0,0,0-4.13,8.56c-2.54,6.37-1.89,13.34-1,20,1.47,10.65,5.94,19.59,15.55,25,5.52,3.08,11.83,4.8,17.8,6.77,9.09,3,18.23,5.5,27.43,7.91,17.37.79,34.87,3.24,52.07,4.75,21.61,1.89,43.26,3.59,64.82,5.86,19.55,2.06,39,5.59,57,13.72s34.71,19.93,50.85,31.32a228.73,228.73,0,0,1,39.2,30.57,41.2,41.2,0,0,1,4.7,5.42c9.6,4.25,18.15,12,25.52,19.19a132.18,132.18,0,0,1,22.8,29.89,116.1,116.1,0,0,1,7.06,14.76c1.27,3.22,3.8,7.59,0,9.91-3.31,2-9.61-1.9-12.62-2.94-7.73-2.66-15.46-.69-19.9,6.39-.54.86-1.64-.84-1.84-1.2-2.35-4.28-4.78-8.53-7.05-12.85-.79,5.07,1.34,10.24,2.3,15.28,1.28,6.75-2.56,10.66-4,16.89-1.76,7.6,2.33,16.57,3.9,24a80.66,80.66,0,0,1,1.76,21.29l0,.51c-.08,1.18-1.57-.64-1.68-1-6.94-22.95-14-45.88-20.88-68.83-2.8-9.32-5.67-18.6-5.93-28.39-.07-2.36-.07-4.61-.14-6.84C665,202.45,653,200.54,645,198.48c-8.7-2.26-17.51-4-26.37-5.49a278.77,278.77,0,0,0-51.7-3.48c-28,.67-57.87,9.68-86.12,6.43-18.46,3.25-36.33,8.66-54.48,14.3-26.14,8.13-52,12.88-79.42,13.47-28.27.6-57.63.25-85.65-3.86-14.51-2.14-28.59-6.45-42.46-11.13-11-3.71-22.32-7.15-33.31-11.24a59,59,0,0,0,6,5.22c2.79,2.12,5.26,3.92,7.32,6.79,3.71,5.18,3.75,12.35,5,18.34,4.15,19,16.7,35.26,28.5,50.2.44.54,1.2,1.69.63,2.35-3.48,4-9.65.11-13.4-1.62a148.73,148.73,0,0,1-14.51-7.92,254.9,254.9,0,0,1-33.42-23.73c-9.26-7.93-15.49-18.85-21.17-29.45a126.48,126.48,0,0,1-7.81-17.57c-1.75-5-2.27-11.7-4.18-17.43-13.33-8.58-28.53-12.43-44-17.21a112,112,0,0,1-24.79-10.93,194,194,0,0,0-17.25-9.58c-9.28-1.11-18.63-1.85-28-2.95-7-.83-16.3-1.22-21.84-6.1C.38,133.9-1,130.25.85,127.87Z"/></g></g></svg>