<svg xmlns="http://www.w3.org/2000/svg" viewBox="0 0 1389.14 302.84"><defs><style>.cls-1{fill:#231f20;}</style></defs><g id="Layer_2" data-name="Layer 2"><g id="icons"><path class="cls-1" d="M1385.06,273.18c-6.54-5.44-29.16-28.6-30.52-36s-20.7-47.4-27-52c0,0-3.81-18.8-5.45-25.61s3.54-10.08,3.27-13.35-12.79-5.6-57.13,5c6.48,8.77,13.51,17.21,22,24.31-9.57-5.66-18.13-13.06-26.14-20.89-4-3.93-7.86-8-11.61-12.21-3.54-4-6.94-8-10.3-12.24-10.47-9.5-22-19.24-28.51-22.64-13.84-7.19-68.16-27.76-183.37-57.82a83.86,83.86,0,0,0-14.17-2.37c-12.37-1-38.56-6.1-26.95-30.8,0,0,7.36-10.08,14.44-13.89S991.11-2,977.49,7.83,938.8,32.62,930.36,34.26s-99.44-4.63-126-3.82S609.7,37,544,44.75C513.16,48.4,358.51,59.59,269.43,88.06c-16.08,5.14-36.78-2.86-43.32,2s-83.77,19.2-95.22,24.11S18.1,147.32,12,151s-18.79,12.26-7.35,20,71.1,21.25,77.1,24.52c5.78,3.16,231.87,46.92,332.85,38.68-2.58-3.4-5.22-6.76-8-10.05a298.77,298.77,0,0,0-20.7-22.5,303.28,303.28,0,0,1,24.52,18.69q5.94,5,11.61,10.33c.87.81,1.7,1.67,2.56,2.5l.41-.05s46.86,49.85,90.18,66.2,1.08-29.43-4.64-36.51c-4.17-5.16-9.06-18.71-12.46-26-4.91-4-9.45-8.12-13.89-12.39q-9.71-9.44-18.6-19.5,10.73,8.07,21.95,15.28a191,191,0,0,0,17,9.8c22.23-2.1,68.89-6,88.86-4,26.7,2.73,152-14.16,174.91-17.43S880.5,193.9,894.12,193.9s77.38-.54,93.72-.54,46.32-3.81,53.95-2.18,76.28,12.53,95.89,14.17c18.92,1.57,66.23,8.21,117-7-.16-.27-.33-.53-.5-.8q-8.1-13.4-15.82-27,9.95,12,20.18,23.79c2.4,2.76,4.86,5.46,7.3,8.17,19.09,20,83,83.21,122.49,77.7C1388.32,280.27,1391.59,278.63,1385.06,273.18Z"/></g></g></svg>