<svg xmlns="http://www.w3.org/2000/svg" viewBox="0 0 1311.02 408.92"><defs><style>.cls-1{fill:#231f20;}</style></defs><g id="Layer_2" data-name="Layer 2"><g id="icons"><path class="cls-1" d="M.08,350.54c.56-3,13.9-73.33,37.41-94C50.71,245,61.75,233.86,71.49,224c7.51-7.57,14.6-14.73,21.73-21.14,13.77-12.39,103.56-82.17,112.65-84a123.5,123.5,0,0,1,24.5-2.9c5.21,0,69.48-29.45,107.88-47.05,20.76-9.52,37.17-17,42.54-19.23,3.08-1.25,7.2-3.11,12-5.26C413.85,35,449.14,19.05,478.43,17c13.62-.94,24.13-2.13,34.29-3.28,16.45-1.87,30.65-3.48,53.12-3.48,10.9,0,26.65.28,43.32.58,38.89.7,87.3,1.57,105.26-.57a157.3,157.3,0,0,0,29-5.91c4.65-1.36,8.33-2.43,13-2.71a55.31,55.31,0,0,0,6.91-.9c5.51-1,9.86-1.78,21.45,2.86,7.23,2.89,12.45,2.2,17.5,1.53,5.27-.7,10.73-1.42,17.7,2.23A71.7,71.7,0,0,0,835.46,13c5.82,1.57,10.84,2.93,15.45,6.83,3.85,3.26,11.51,4.39,18.91,5.49,7.09,1.05,13.79,2,17.34,4.95,6.71,5.48,21.51,12.22,29.74,15.75a80.69,80.69,0,0,0,8.27,2.77c7.5,2.22,16,4.74,20.69,11.3,3.5,4.9,12.24,10,20,14.56,5.24,3.08,10.2,6,13,8.54.62.57,2,1.72,3.9,3.4,80.88,69.94,117.14,115.66,133.32,141.77,2.23,1.62,19.86,14,48.1,24.18,7.22,2.6,17,5.16,28.23,8.12,36.29,9.52,86,22.56,104.16,51.57,14.06,22.45,15.71,28.32,13.87,31.79-1.48,2.8-5,2.93-9.47,3.1-1.7.07-3.62.14-5.58.37-14,1.65-55.45,9.78-64.77,13.43-7.62,3-19,3.82-34.74,2.56-4.16-.33-8.94-2.1-13.56-3.82-6.85-2.54-13.93-5.16-17.78-2.59-2.56,1.7-4.35,4.1-6.24,6.63-3.2,4.3-6.83,9.16-14.83,10.82-6,1.23-16.86-1.22-29.47-4.07-12.87-2.9-27.45-6.17-36.2-4.93a85.88,85.88,0,0,0-14.17,3.74c-11.85,3.85-24.1,7.83-32.12-5.32-10.73-17.59-5.76-30.42-1-42.83l.53-1.36c14.41-37.09,18.47-59.51,12.07-66.64-10.79-12-83.23-32.93-102-29.41-20,3.75-47.93,15.7-67.85,25.08-20.92,9.84-29.79,10.6-40,10.6-9.89,0-30.45,0-44.93,5.43-10.88,4.08-66.71,18.16-96.49,25.57a215.73,215.73,0,0,0-36.57-22,148.76,148.76,0,0,0-43.63-12.64,206.9,206.9,0,0,0-22.43-1.44c-7.44-.15-14.75-.11-22-.86a119.49,119.49,0,0,1-21.54-4.17A156,156,0,0,1,525,241.42a155.72,155.72,0,0,0,20.13,9.43,121.34,121.34,0,0,0,21.6,5.85c7.39,1.32,14.87,1.82,22.19,2.5a200.81,200.81,0,0,1,21.66,3,140.41,140.41,0,0,1,40.29,14.91,192.32,192.32,0,0,1,25.47,17.14l-.1,0c8.12,6.92,34.39,29.22,41.54,34.33,5.43,3.89,10.42,10.53,9.32,16.62-.57,3.14-3,7.36-11.48,9.63-16.15,4.34-57.69,8.34-73.59,6.19-15.38-2.08-42.89-8.21-55.9-15.35C574.43,339.27,543.87,327,540,325.45c-10.78,1.51-154,21.57-173.93,23.23-2.08,8-14.3,53.18-26.44,59.42a6.83,6.83,0,0,1-3.16.82,6,6,0,0,1-2.2-.42c-13.93-5.49-27.6-53-29.15-59.64-5.75-2.18-53.57-3-71.83-3.33l-2.15,0c-3.66-.06-7.49-.16-11.39-.25-20.5-.51-43.73-1.09-54.87,2.63-6.41,2.14-19.23,5.33-32.8,8.7-15.3,3.81-31.13,7.75-39.32,10.56-16.52,5.65-40,7.83-54.71,7.05C21.77,373.32,4.41,362.89.16,351.4L0,351Z"/></g></g></svg>