<svg xmlns="http://www.w3.org/2000/svg" viewBox="0 0 115.46 41.14"><g id="Layer_2" data-name="Layer 2"><g id="Layer_1-2" data-name="Layer 1"><path d="M96.37,31.71a38.35,38.35,0,0,0-9.7,1.65,31.94,31.94,0,0,1-3.78,1.5c-1.36.27-2.7-.24-4.07-.16s-3.2-.14-4.83-.17-3,.56-4.61.82-3.47.09-5,.32c-1.77.25-3.38.82-5.17,1-3.44.42-6.87,1.51-10.43,1.51A36.65,36.65,0,0,1,44,37.84c-1.3-.16-3.79.47-5-.4-2.12.91-4.21-.41-6.25-.86s-3.89.2-6-.1c-1.46-.2-3.83-1.47-5.19-.83-.21,2.15,2.61,3.23,3,5.13-1.69,1.33-4.8-1.37-6-2.55-2.09-2-2.37-4.32-5.45-4.51a69.55,69.55,0,0,1-7.6-.92c-1.43-.25-3.36-.14-4.61-1-1.94-1.3-.37-2.77.43-4.51,1-2.13,2.05-2.24,4-3.37,2.87-1.67,4.61-4.81,7.39-6.52s6.9-3,10.21-4.18A68.63,68.63,0,0,1,33.13,10c2-.4,3.85-.66,5.87-1s4.36-.12,6-1.79c1.46-1.45,2-3.63,3.52-5S52.28,1.09,54,0c.06,1.36,1.48,3.34,2,4.71,1.57,3.91,4.4,5.8,8.41,7,3.13.94,6.48,2.15,9.79,2.8a78.86,78.86,0,0,0,10.21.88,18.41,18.41,0,0,1,9.12,2.65c3.37,2,6.55,4.15,10.22,5.33a9,9,0,0,0,5.86-.38c1.87-.65,3.35-2,5.2-.65-.26.59-1.18,1.77-1.22,2.4-.08,1,.63,1,1.09,2.12a9,9,0,0,1,.15,2.65c.09,1,.48,1.87.62,2.81-3.16-.49-5.64-3.39-8.88-2.82a39.11,39.11,0,0,0-4.77,1.37A22,22,0,0,1,96.37,31.71Z"/></g></g></svg>