<svg xmlns="http://www.w3.org/2000/svg" viewBox="0 0 114.31 37.14"><g id="Layer_2" data-name="Layer 2"><g id="Layer_1-2" data-name="Layer 1"><path d="M107.53,22.08c-4,1.25-7.79-.8-11.45-2.52s-7.4-3.8-11.25-5.25A118.77,118.77,0,0,0,72.08,9.82,28.25,28.25,0,0,1,67.9,8.51a7.4,7.4,0,0,1-3.76-2c-1.43-1.3-1.65-3.07-1.62-4.89,0-.15,0-.31,0-.47V1a1.14,1.14,0,0,1-.06-.25h0a.33.33,0,0,1-.06-.08L62.33.62,62.16.53l-.09,0L61.78.43h-.06c-.3,0-.61,0-.92,0-.57,0-1.14,0-1.71,0a41.24,41.24,0,0,0-4.51,1.11c-2.29.74-4.23,2.42-6.49,3.28a30.58,30.58,0,0,1-9,1.47,74.89,74.89,0,0,0-12.29,2l-1.87.41c-1.44.41-2.86.9-4.28,1.35-1.13.36-2.26.75-3.37,1.2-.31.13-.69.4-1.1.63a5.15,5.15,0,0,1-1.05.46,1.24,1.24,0,0,1-.23.17c-.26.12-.53.23-.81.34h0a24.36,24.36,0,0,1-2.43,1.26,1.64,1.64,0,0,1-.21.25,1.53,1.53,0,0,1-.65.41,1.5,1.5,0,0,1-.55.15,2.69,2.69,0,0,1-1.25.5c.74-.09-.07,0-.27.09s-.19.06-.29.09c-.39.25-.84.43-1.23.69l-.34.25,0,0h0L6.23,17c-.41.37-.81.77-1.2,1.18s-.76.85-1.12,1.29l-.24.3-.08.1c-.15.19-.29.38-.43.58,0,0,0,0,0,0h0v.05c-.12.3-.25.6-.38.9a6.15,6.15,0,0,1-.91,1.35,1.67,1.67,0,0,1-.48.37,1.42,1.42,0,0,1-.13.12A10.67,10.67,0,0,0,0,25.8c-.39,2.65,4.89,3.09,8.29,3.46a31.6,31.6,0,0,1,4.74.3l.53.06a2.53,2.53,0,0,1,.57-.08,2.36,2.36,0,0,1,.29,0,1.33,1.33,0,0,1,.28,0,34.94,34.94,0,0,0,3.54.16,2.16,2.16,0,0,1,1.16.07,2.33,2.33,0,0,1,.38,0,2,2,0,0,1,.62.1,2.06,2.06,0,0,1,.87.21h.05c3.6.51,7.21,3.54,11,4.32l.7.16a1.71,1.71,0,0,1,.3.09l.32.08h.11a6.62,6.62,0,0,0,1-.26l.15-.08.06-.22a1,1,0,0,1-.08-.22A8.25,8.25,0,0,1,32.93,31c5.86.32,11.45-1.43,17.21-2.11,5.93-.71,11.87-.76,17.69-1.57,2-.27,3.65-.91,5.7-.93,1.68,0,3.92-.08,5.8-.31,2-.25,4.17-.91,6.25-.76s3.85.76,6,.76c1.92,0,4.31.45,6,0,.88-.23,1.55-1.13,2.49-1.22s1.92.7,2.75.9c3.14.78,8.79,2.08,11.48-.13C110.9,25.22,109,26,107.53,22.08Z"/><path d="M55.65,4.39a11.26,11.26,0,0,1,1.23-.55l.38-.13.07,0L58,3.5A19.42,19.42,0,0,1,60.75,3l.31,0c-.16,0,0,0,.06,0s.26,0,.39,0,.29,0,.18,0,.14,0,.17.06.28.17.06,0l.21.14c.12.08.09.1,0,0s.26.28.13.13,0,.08,0,.1,0-.2,0,0c0,.33,0,0,0,0V3.6l.53-.73c-.07,0-.19.09-.26.12l-.7.32A1.49,1.49,0,1,0,63.19,6,3.76,3.76,0,0,0,65,4.82a2.68,2.68,0,0,0,.16-2.25A3.89,3.89,0,0,0,62,.08a10.4,10.4,0,0,0-3.8.32,15.07,15.07,0,0,0-3.85,1.3,1.51,1.51,0,0,0-.7,2,1.51,1.51,0,0,0,2,.7Z"/><path d="M27.44,32.2a30.28,30.28,0,0,0,3.2,2.68c.51.37,1,.73,1.58,1.06a10.05,10.05,0,0,0,1.87,1,2.35,2.35,0,0,0,2.73-.71,2.1,2.1,0,0,0-.5-2.87c-1.07-1-2.21-1.82-3.31-2.72a1.49,1.49,0,0,0-2.08.37,1.52,1.52,0,0,0,.37,2.07l2.6,2.13c.2.17.43.33.62.52a.94.94,0,0,1,.4-1.58.36.36,0,0,1,.25,0c.11,0,.09,0,0,0s-.4-.2-.11,0l-.66-.38a28.5,28.5,0,0,1-2.52-1.7c-.39-.29-.77-.59-1.14-.91l-.57-.5c-.08-.07-.06,0,.05.05L30,30.57c-.11-.1-.22-.2-.32-.31a1.55,1.55,0,0,0-2.11-.17,1.52,1.52,0,0,0-.17,2.11Z"/></g></g></svg>