<svg xmlns="http://www.w3.org/2000/svg" viewBox="0 0 1262.85 448.57"><defs><style>.cls-1{fill:#231f20;}</style></defs><g id="Layer_2" data-name="Layer 2"><g id="icons"><path class="cls-1" d="M1257.4,154.89c-1.51-1.31-8-3-14.1-4.34s-5.85-2-8.46-2.82-8.46-3.26-15-6.08-7.37-4.12-11.06-6.94-7.38-3.26-11.07-5.86-6.29-5.21-9.54-6.07-11.28-8.46-12.37-11.29-10-1.73-13.88-3.9-3.48-.65-11.72-1.3-9.33-6.94-9.33-6.94,6.73-.66,8.46-3,5.64-5.43,11.28-8.46,10.63-6.73,17.36-11.94,12.15-8.24,14.1-12.58,9.33-10.63,12.37-14.75,5.86-13.24,5.86-18.44,3.68-6.94,11.49-13.24,4.13-4.34,4.13-4.34S1214.66,3.89,1196,.85s-35.8,2.6-49.69,8.46-66,40.57-75.71,45.56c-4.74,2.42-9.58,4.74-13.31,6.49.93.24,1.87.46,2.8.71,8.22,2.22,16.41,4.57,24.38,7.6a138,138,0,0,1,23,10.8,136.51,136.51,0,0,0-23.86-8.07c-8.12-2.07-16.41-3.46-24.68-4.72s-16.62-2.09-25-2.78c-5.73-.45-11.51-.81-17.23-1-25.45,1.09-55,4-65.33,4-15.91,0-61.9,9.25-93.15,9.83s-71.16-.58-75.21-.58-43.68-2-52.64-6.07-4-11.86,5.2-17.36,5.21-3.47,5.21-3.47c-6.07-11.28-55.11-2.31-78.54.29s-36,0-36,0-9.55-.58-27.48-4.05S421.2,32,388.8,30.86s-143.48,3.47-159.1,3.47-44.55,1.45-49.47.58S170.11,37.8,162,40.41,151.6,43,145.23,43.3,128.17,45,122.38,44.75s-9,3.76-11.86,3.76S99,49.66,94.32,51.4,84.77,55.74,79.57,56s-14.18.29-18.23,1.16-9.54,4-12.72,4.62S36.18,67.31,31,66.73s-14.54,5.71-16.71,8.32-3.47,7.16-6.94,9.33S1,91.75.6,95s-1.52,5,1.08,6.72,2,4.56,4.77,8.25,5.14,5.93,8.32,6.51,2,2.31,6.94,6.94,2.9,4.92,10.42,9,22,2.32,30.37,3.19,42.23,6.94,53.8,9.83,85.63,37,100.67,47.44c8.48,5.87,35.21,18.56,56.93,28.52l0-.08c1.48.72,3,1.41,4.45,2.12,14.72,6.72,26.17,11.75,26.17,11.75s23.37,11.4,28.42,13.38c-5.28-1.26-10.51-2.77-15.73-4.28l-13.47-4a43.12,43.12,0,0,0-.31,8c.44,5.42-.43,10.84-.65,13.66s-4.55,4.56-8,9.33,6.08,7.6,6.08,10.85-2.17,8.24-7.16,11.06-5.21,5-4.34,9.12,3.26,4.12,4.77,8.24-4.12,11.72-8.89,15.62,3.47,4.12,3.9,4.78-.43,9.54.44,14.75-2.39,10-4.78,12.36,4.34,6.3,8,10,8.46,14.11,12.37,18.23,8.46,10.85,15.19,13.67,6.5-3.91,6.94-8.25,1.73-10.19,1.3-15.19,2.39-13.23,3.9-20a74.59,74.59,0,0,0,2.17-15.62c0-3.68,1.09-8.89.44-13.88s5.86-18.87,8-24.73,5.64-21.26,11.71-29.29a27,27,0,0,0,1.93-2.91l-16.47-38.53,18,30.29,1.26,1.1a148.49,148.49,0,0,1,9,15c2.89,6.07,2,7.52,6.94,11.57s-.29,6.36-2,10.12,5.49,3.76,9,4.92,5.79,4.05,7.24,5.5,4.62,11.28,10.7,15.62,6.65,3.76,12.15,8.39,4.92,8.39,10.12,12.15,6.08,8.39,11,17.93S450.12,371,450.12,371s3.47,1.45,9,4.34,4.34,7.23,10.13,12.15,11.86,4.34,16.77,5.21,4.63,4.05,12.73,7.23,4.63,3.47,9,12.44,6.07,2.31,6.94.29,9.84-1.45,17.07-.87,8.68,7.81,9.83,15,2.61,2.61,3.76-.58,4.63-.57,13,0,4.63,4,5.79,10.13,7.81,1.44,11.28-3.18,4,1.15,9.25,1.44,10.71,2.61,17.07,8.1,5.21,4.05,6.08,1.74,6.07-.29,17.35,1.16,15.62,4,17.36,2.31,1.44-4.34,10.41-5.21,12.44-4.92,12.15-7.52-4.34-9.54-9.83-14.46-8.68-8.1-13.31-12.73-20.25-15.33-26.61-20-17.65-12.15-24-15-19.1-12.73-23.14-17.94-15-19.38-19.39-22.27S536.9,325.63,532,318.11s-12.15-13.89-19.1-18.52c-5.34-3.56-14.43-14.2-18.34-18.93q-4.56-4-9-8.09c-2.72-2.56-5.39-5.18-8-7.9s-4.94-5.43-7.61-7.93c-5.32-5-11-9.69-16.83-14.22s-11.75-9-17.79-13.22q9.54,5.65,18.82,11.78c6.19,4.08,12.28,8.32,18.14,13,2.93,2.34,5.72,5,8.35,7.45s5.49,4.81,8.33,7.11c4.06,3.29,8.25,6.44,12.47,9.5,208-5.47,311.12-67.55,322.67-71.83C835.87,202,954.76,146,972.55,134.71c15.07-9.56,48.81-20.77,58.78-24-6.55-.68-13.14-1.13-19.75-1.39-8.8-.34-17.64-.44-26.48-.12,8.76-1.27,17.59-2.13,26.44-2.74s17.76-.88,26.71-.71c3.72,0,7.45.24,11.2.46a69.85,69.85,0,0,1,21,2.79,75.65,75.65,0,0,1,20.3,6.88c18.5,7.19,40.15,17.22,66.35,26,58.43,19.67,107,19,105.73,15.55S1258.92,156.19,1257.4,154.89Z"/></g></g></svg>