<svg xmlns="http://www.w3.org/2000/svg" viewBox="0 0 1179.96 514.15"><defs><style>.cls-1{fill:#231f20;}</style></defs><g id="Layer_2" data-name="Layer 2"><g id="icons"><path class="cls-1" d="M1150.17,429.37c-2.23-13.17-12.36-17.43-12.36-17.43s6.89-.2,10.94-3.24,8.31-16.82,12.16-23.1,19-14.6,19-14.6c-26.28-12.54-71.93-6.73-88.19-4.55q5.16,6.07,10.08,12.33a134.41,134.41,0,0,1,10.83,15.6A131.73,131.73,0,0,0,1099.49,381q-7-6.31-14.22-12.31c-1.72-1.42-3.47-2.78-5.2-4.18-9.78-5.92-26.71-19.53-26.71-19.53C964.73,283.85,817.72,249.27,795,242.78s-173.49-37.29-195.1-41.62c-7.3-1.45-77.83-19.86-77.83-19.86l45.49,5.56c-6-5.23-11.47-12.22-16.85-21.91-13-23.47-11.89-80.52-12.43-90.25S549.11,1.2,543.71.11c-21-4.19-78.91,108.64-89.72,139.44S424.27,180.63,409.13,186s-62.69,6.49-94.58,7-195.1,27-241.58,37.83c-45.19,10.51-53.87,39-58.91,43.78C9.71,278.76-.08,288.93,0,293.58c-.21,6.79,5.4,7.57,5.13,8.92S21.89,326.82,51.08,346c23.88,15.7,97.44,37.91,123.37,45.47.31-4.41.7-8.79,1.2-13.14.77-6.51,1.71-13,2.93-19.38s2.56-12.84,4.91-18.9a108.87,108.87,0,0,0-1.72,19.23c-.14,6.43,0,12.87.3,19.27.25,5.18.67,10.34,1.21,15.45l.35.1c0,29.59,39.72,101.74,120.79,118.36,67.69,13.88,36.76-62.1,24.7-87.56A119.67,119.67,0,0,0,321,411a166.83,166.83,0,0,0-14.45-18.46,217.92,217.92,0,0,0-16.82-16.75,204.38,204.38,0,0,0-18.71-14.9,203.88,203.88,0,0,1,20.68,12.37,223.42,223.42,0,0,1,19.33,14.68,175.69,175.69,0,0,1,17.58,17.17,132.65,132.65,0,0,1,11,14.22c108.81,16.83,292.09,6.62,349.44-6.56,60-13.78,189.7-5.67,223.75-4.05s125.66-12.36,141.67-7.7,29,27.77,45.19,54.32,65.47,48.84,65.47,48.84-7.3-12.36-9.93-21.48S1152.4,442.55,1150.17,429.37Z"/></g></g></svg>