<svg xmlns="http://www.w3.org/2000/svg" viewBox="0 0 1410.28 370.25"><defs><style>.cls-1{fill:#231f20;}</style></defs><g id="Layer_2" data-name="Layer 2"><g id="icons"><path class="cls-1" d="M1403.7,361.14c-11.36-4.26-30.11-15.34-35.51-26.7s-26.41-27.84-26.41-27.84,9.37-8,13.63-16.48,8.52-17.33,12.78-19,5.4-3.12,6.54-3.12-48.86-4.83-108,13.92c0,0-203.69-157.95-240.62-179-29.48-16.78-52.8-28.67-62.74-35.39a1.71,1.71,0,0,1-.23-.13q-20-10.77-40.29-21.15c11,3.68,21.9,7.5,32.81,11.37-5.15-12.92-10.77-41.51,28.41-46.17,0,0,5.47-.29-.71-6s-34.3-12.14-68.82,11.08c0,0-22.37,18.32-49.22,16.83S742.08,16.83,714.24,17.69,524.05,12,415,41c-63.36,16.83-83.1,18.47-180.25,50.71-26,8.61-34.95,1.7-46,8.52s-46,25.71-63.92,34.23-80.65,46.63-80.65,46.63S-6.18,214.27.64,225.63s38.06,12.86,40.41,13.5,225.06,23.68,340.6,14.19q-18.31-14.3-36.14-29.11,21.3,13.31,43,25.92c7.23,4.18,14.47,8.31,21.78,12.27s14.65,7.83,22,11.31l-.1.17c23.44,11.07,53,22.34,76.94,22.77,0,0-18.47-18.75-23.87-23l-5.39-4.26-10.6-16.26q-3.52-3.93-6.78-8c-5.16-6.43-10-13-14.72-19.67,6.32,5.14,12.78,10.09,19.35,14.76,3.28,2.33,6.62,4.55,10,6.6l2.5,1.49,2.5,1.34.56.27c66.4-3,332.81-14.22,376.76-5.28,50.28,10.22,127,13.63,220.73,41.76,83.61,25.08,128.23,34.22,162.3,33.79q-6-4.23-12.11-8.3c-5.81-3.83-11.7-7.59-17.7-11.19,6.5,2.59,12.93,5.37,19.33,8.24s12.76,5.87,19,9.08l3.16,1.63.26,0,.9.62c4.82,2.52,9.62,5.13,14.33,8s9.1,5.65,13.52,8.92c32.3,17.8,85.38,41.29,125.08,30.21C1408.25,367.39,1415.07,365.4,1403.7,361.14Z"/></g></g></svg>