<svg xmlns="http://www.w3.org/2000/svg" viewBox="0 0 113.07 24.43"><g id="Layer_2" data-name="Layer 2"><g id="Layer_1-2" data-name="Layer 1"><path d="M74.35,21.31c.24.06.39-.06.57.17-1.59-.47-3.08.28-4.64.47a24.7,24.7,0,0,1-4.71,0c-3.58-.24-6.83.56-10.28.43-3.23-.11-6.64.4-9.85-.22s-6.51-.44-9.63-.64c-1.83-.11-4.64-.12-6.24-1.19.68.56,1.66,2.6,1.05,3.51-.71,1.07-2.95.41-3.86.09-3-1.05-4.32-4-7.31-4.89C15.63,18,12.16,16.23,8.4,15c-1.62-.53-7.16-.12-8.1-1.64-.26-.42.22-1.26.17-1.66C.23,9.76-.72,8.1,1.06,6.48c2.5-2.29,5.94-2.11,9-2.68,3.39-.63,6.67-1.58,10.06-2S27.08,1.46,30.5,1C33.14.67,36,.83,38.59.33s4.78.42,7.49.21c3.86-.3,8.14-.92,12-.22a34.48,34.48,0,0,1,3.85.87c3.07.91,6.1,2,9.26,2.66a73.42,73.42,0,0,1,9.38,2.9c3.19,1.15,7.16,2.87,10.48,3.42a34.32,34.32,0,0,1,5.31,1.56c1.68.56,3.41,1.37,5.25,1.28s1.8-1.58,3.58-2.1c.32,1.75,2.25,1,3.42,1.51.94.43,2.06,1.75.9,2.3,1.38.43,3.59,2,3.56,3.75,0,2.36-3.63,1.5-2.51,4.26-2.65-.95-4.58-4-7.13-4.59s-6.56.84-9.59,1c-3.41.2-6.88-.09-10.23.17-2.91.23-5.85,1.56-8.88,1.92a22.76,22.76,0,0,1-4-.16c-1.54-.09-3.29.3-4.73-.43Z"/></g></g></svg>