<svg xmlns="http://www.w3.org/2000/svg" viewBox="0 0 1627.85 447.63"><defs><style>.cls-1{fill:#231f20;}</style></defs><g id="Layer_2" data-name="Layer 2"><g id="icons"><path class="cls-1" d="M1569.11,80.85c-27.75-5-36.31-15.46-36.31-15.46s2.78-11.66,15.8-26.44S1582.51,0,1582.51,0a278.07,278.07,0,0,1-36.33,4.36c-18.76.86-73,50.12-85.09,54.54s-55.22,6-73.84,6.09-33.64,2.79-68,7.49c-11.88,1.62-71.3,12.58-100.94,15.65s-68.07,5.45-101.11,4.7-127,18.93-129.47,19.32-35-3.51-52.3-6.44S780.34,94.79,766.84,93.31s-139.45-22-195.58-20.2S502.05,114,502.05,114a108.43,108.43,0,0,0-6.7,9.87c-91.85-7.09-464-39.46-494-42C0,81.69,0,82.29,0,82.29s-.3.5,1,.67c29.93,4,399.5,52.74,489.45,62.59A139.76,139.76,0,0,0,491.61,166c6.12,41.49,104.2,98.76,120.28,116s20.49,21.69,14.55,61.53-3,36.57,2.12,49.17,35.25,33.67,44.66,45,19.37,12.18,19.52,6.54,17.58-47.27,21-57.62S697.92,367.9,689,360.73c-6.6-5.32-10.11-21.85-9.55-29.71q-17.33-4.45-34.5-9.31,18,2.79,36,5.15a1.08,1.08,0,0,1,.54-.06c3.52.6,42.29,5.37,61.8,7.76l-1.24-2.05-2.56-4.81c-.42-.8-.85-1.59-1.26-2.4l-1.15-2.45c-.76-1.64-1.57-3.25-2.28-4.91-1.39-3.32-2.8-6.63-4-10a193.48,193.48,0,0,1-6.28-20.49,170.61,170.61,0,0,1-3.89-20.94,170.73,170.73,0,0,0,6.09,20.27,189.25,189.25,0,0,0,8.32,19.34c1.51,3.15,3.23,6.2,4.91,9.24.85,1.52,1.8,3,2.69,4.47l1.36,2.22c.47.73,1,1.44,1.45,2.16l2.91,4.28,3.14,4.11,1.56,2.05,1.08,1.25.23,0c27,33.71,79.17,57.91,89.71,62.53s24.09,13,27.7,10.76-4.09-14-8.07-21.59c-3.75-7.12-1.24-23.6-.94-25.46a41.34,41.34,0,0,0-5.75-12,83.16,83.16,0,0,0-14.72-16,166.49,166.49,0,0,0-18-13.25c-6.28-4.08-12.82-7.81-19.34-11.58,6.86,3.08,13.76,6.13,20.49,9.59a169.47,169.47,0,0,1,19.64,11.6A88.42,88.42,0,0,1,862.61,346a52,52,0,0,1,6.71,10.12,39.87,39.87,0,0,1,3,7.91c167.15,34.72,242.23-29.26,260.42-42.85,18.52-13.85,143.25-119.71,156.54-136.07s53.28-65.4,90-83.39c32.91-16.13,90.24,8,126.84,2s121.78,1,121.78,1S1596.19,85.74,1569.11,80.85Z"/></g></g></svg>