<svg xmlns="http://www.w3.org/2000/svg" viewBox="0 0 142.71 50.48"><g id="Layer_2" data-name="Layer 2"><g id="Layer_1-2" data-name="Layer 1"><path d="M114.52,34.07c-2.83-.17-4.69.73-7.45,1.26s-5.46-.89-8.39-.53S92.92,35.88,90,36.24c-4.66.58-8.62,1.27-13.21,1a41.22,41.22,0,0,0-12.68,1.58c-2,.51-4,.11-6.07.46a36.06,36.06,0,0,1-6.13.66,94.53,94.53,0,0,1-9.67-.1c-5.22-.52-2.92,4.06.12,6.13-2.56-.86-4.76-.1-5.86-3.49,1.36,3,2.61,5.91,5.34,8-1,.15-1.43-.4-2.27-.56C35.6,49.17,32,46.19,30,42.58c-1-1.75-1.6-3.61-3.38-4.75-1.59-1-3.49-1.36-5.21-2-3.47-1.22-7.53-2.24-10.95-3.77-1.72-.76-3-1.85-5-2.25C4,29.55.78,30,.11,28.25s1.76-3.13,2.77-4.15a21.12,21.12,0,0,1,4.49-3.7c3.29-1.78,7.37-2.7,10.82-4,4.28-1.57,8.71-1.91,13.14-2.44s8.92-2.06,13.47-2.64c2.37-.3,5.42.23,7.6-.86C54.82,9.31,56.91,7,59.08,5.34,63.49,2.06,67.44-1,73,.3c-.87,2.23-3.43,3.71-4,6.3-1.14,5.69,5.08,6.92,9.23,8.16A90.08,90.08,0,0,0,93.93,18c4.36.5,8.27,2,12.62,3S115,22.25,119,24.22c2.75,1.34,5.13,3.39,7.91,4.62,3,1.33,5.68.48,8.7,1.6a16.78,16.78,0,0,0-3.06,1.78c2.22.59,2.83,2.76,4.46,4.17,1.31,1.13,3.92,2.53,5.67,2.49-4,1.83-8.18-1.19-11.81-2.7-2.37-1-4.92-2.68-7.56-2.74-1.36,0-2.07.61-3.28.86C118.34,34.65,116.26,34.18,114.52,34.07Z"/></g></g></svg>