<svg xmlns="http://www.w3.org/2000/svg" viewBox="0 0 1209.37 506.33"><defs><style>.cls-1{fill:#231f20;}</style></defs><g id="Layer_2" data-name="Layer 2"><g id="icons"><path class="cls-1" d="M9.83,250.31c11-18.82,64.71-46.81,71.13-48.65s22.49-9.17,29.37-11.47,59.2-34.88,101.88-53.23c34-14.65,83.58-27,107.81-33,18.06-3,36.24-5.6,54.54-7.21q28.8-2.67,57.78-3.46c19.31-.49,38.65-.45,58,.5-19.26-1.86-38.61-2.8-58-3.23s-38.76-.13-58.15.75c-9,.37-17.91,1-26.85,1.72C360,84.63,378.28,69.81,402.2,49.31,437.54,19,470.35,9.84,482.28,4.1s80.54-8,51.63,10.79-18.82,34.87-6,55.53,79.85,37.17,101.42,41.76S753.73,144.3,753.73,144.3c91.32,16.06,158.32,43.75,158.32,43.75,84.34,32.47,145.82,101.68,174.85,143.3q4.06,6.88,7.82,14c3.82,7.29,7.45,14.71,10.69,22.32-2.39-7.92-5.19-15.73-8.22-23.46-.9-2.28-1.84-4.56-2.79-6.83,97.48,41.65,116.53,74.07,114.88,76.18s-27.39-20-37-19.12-25.24,4.13-25.24,4.13c4.36,19-14.23,28-16.75,41.53s5,35.26,15.52,53,1.23,12.55,1.23,12.55c-49-38.25-84.44-135.23-84.44-135.23-64.25,3.06-82.61-10.4-153-25.09s-200.09-9.79-310.23,9.79c-92.1,16.38-232,15.37-275.42,14.6a33.23,33.23,0,0,1-6.54-4.32c-2.4-2-4.73-4.17-7-6.47l-6.9-7.08c-1.16-1.18-2.37-2.35-3.61-3.47a15.24,15.24,0,0,0-4.15-2.82,14.57,14.57,0,0,1,3.12,3.71c.86,1.37,1.67,2.78,2.46,4.21l4.72,8.72c1.51,2.7,3.1,5.39,4.91,8,7.68,19.74,63.63,32.8,106.63,41,43.6,8.26,28.23,14.45,28.23,14.45C264.53,441.68,208.08,364,208.08,364h0c-.34-.46-.67-.93-1-1.4-1.53-2.25-3-4.61-4.35-7l-2.06-3.67c-.35-.61-.7-1.23-1.07-1.84-.18-.3-.37-.6-.58-.9s-.43-.62-.79-.72a1.59,1.59,0,0,1,.48.88c.1.33.19.66.26,1,.15.68.29,1.36.42,2.05l.78,4.15q.69,3.48,1.61,7c-13.26-1.07-43.8-3.58-56.09-5-15.91-1.84-60.58,1.22-80.46.92s-38.55-4.59-43.45-8-6.42-2.75-7-5.81-1.53-19.89-1.84-23.86S0,301.86,0,293.91-1.18,269.12,9.83,250.31Z"/></g></g></svg>