<svg xmlns="http://www.w3.org/2000/svg" viewBox="0 0 586.11 210.23"><defs><style>.cls-1{fill:#231f20;}</style></defs><g id="Layer_2" data-name="Layer 2"><g id="Layer_3" data-name="Layer 3"><path class="cls-1" d="M2.58,123a2.39,2.39,0,0,1-2.39-2.44C0,118-.48,116.69,1.82,113.65s1.56-2.22,2.74-6.23,1.7-17,9-24,9.56-7.19,12.82-10.08S35,64.45,42.13,63.26s8.44.52,9.55.67,1.49-1.57,6.52-1.08S77.91,64,85,64.52s8.67.08,20-5,16.15-7.7,30.53-9.55S161,45.41,175.09,44.3s24.45-2.89,32.67-4,7.3-1.92,21.82-3.4,20-2.08,32.75-10.08,18-12.19,28.9-17.41a97.72,97.72,0,0,1,36-9.34c11.89-.55,12.44,2.67,9.78,5.67s-14.34,8.11-19.34,11.12A47.35,47.35,0,0,0,303,32.18c-3.23,5.78-5.78,9.67-3,13.12s4,3.37,9.3,5.29,9.81,5,15.93,9.49,10.55,7.89,18.11,9.78,15,5.22,22.12,5.55,22.45,4.45,29.12,5.12,26.89,5.33,39.67,10.56,28.86,15.59,39.83,25.67a143.93,143.93,0,0,1,21,24.12c2.33,3.55,3.89,8.78,9.33,10.67s31.12,10.78,48.46,21,26.45,20.67,30.9,26.34,1.77,3.22-1.12.67-9.89-11.56-23-15.89-14.12-2.23-22.45-4.67-15.56-4.89-17.9-6.34-2.44-1.22-.77,1.34,2.33,7.78,3.78,12.56,5.33,12,9.11,14.67,13.34,7.66,14.23,8.78-6-2.12-14.68-5.78-16-12-25.34-20.56-7.66-13.79-18.22-21.45-23-8.45-32.57-9.34-24.67-3.11-32.34-5.89-6.56-2.67-13-2.22-23.56-.23-35.23-1.12-26.56-.44-36.68,1.89-13.22,4-17.78,2.23-3.33-3.34-12.56,0-42.38,12.85-62.53,16.41-33.49,3.56-46.24,2.52-17-.74-29.34.44-16.45-.15-26.23-2.07A67.22,67.22,0,0,1,126,159.66c-1-.56-.22.78.78,3.22s3.67,8.78,4.78,12.34,4.33,7.45,8.11,11.22,11.45,12.12,13.23,17-1.22,3.78-11.67-.67-18.67-12.45-23.12-15.89-14.3-13.75-19.19-19.67-6.67-11-7.7-12.75.81-1.78-3.78-2.66-11.78-2.15-16.08-3.41-4.82-5.71-20.9-9.26-20.15-2.08-26.23-2.37-10-1.19-17.33-5.12-5.19-7.85-4.08-8.15S3.18,123,2.58,123Z"/></g></g></svg>