<svg xmlns="http://www.w3.org/2000/svg" viewBox="0 0 1253.19 462.27"><defs><style>.cls-1{fill:#231f20;}</style></defs><g id="Layer_2" data-name="Layer 2"><g id="icons"><path class="cls-1" d="M1218.8,159.93c-19.45-14.08-34.77-29.39-44.7-38.5s-34.36-31.87-40.57-38.91c-5.58-6.32-29.84-27-53.92-23.63q-3.84,3.22-7.86,6.17A209,209,0,0,1,1053,77q-9.69,5.4-19.74,10c-6.7,3-13.49,5.83-20.41,8.23,6.64-3.07,13.1-6.52,19.42-10.17s12.45-7.57,18.41-11.72a203.52,203.52,0,0,0,17-13.37c.76-.69,1.51-1.4,2.26-2.1-3.81-7.19-14.9-24.66-35.31-30.52,0,0-12.42-3.59-19.87-7.73S992.1.28,987.69,0s3,8,3,16.28-2.21,27.59-3.59,36.7,2.21,21.53-3.86,34.22-6.9,18.21-6.9,18.21-46.5-.14-118.11-11.31S725.39,62.24,713.38,60.17s-64.16-19.46-92.3-23.6-65-13.66-94.8-16.14-87.34-8.69-110.93-10.35-40.57.83-53.4-.41-36.43,1.24-44.29,1.24-11-1.24-18.21-2.9S278.2,7.18,272.4,8s-16.56,8-22.07,10.21-5.25,3.31-10.21,3.31-14.91-2.21-21.25-2.21-11.59-2.2-16.84-2.48-10.76-1.38-14.62.28-5.8,3.58-10.49,4.69-7.45.27-9.66,3.58-3,6.63-7.72,7.73-4.76.76-8.08-1.1-10.55-5.18-14.07-3.52-2.9,6.42-6.21,7.86-11.18,2.7-12.62,2.9-3.32-3.72-7.87-3.31a14.26,14.26,0,0,0-8.9,3.93c-1.45,1.45-9.31,5-12,4.56s-4.35-1.66-5.38-1.66A55.88,55.88,0,0,0,73.85,44c-4.35,1-5.38,2.28-10.76,1s-6.21-5-12.42-5.18-15.94,2.49-17.39,4.35.63,2.48-5.58,3.73-10.56.41-13,5.17-8.9,7-10.35,9.73S-.24,70.72,1.62,74.65s4.76,11,7,12.63a10.53,10.53,0,0,1,3.94,8.07,86.06,86.06,0,0,1-.83,8.9L8,107.36S-6.45,117.7,3.48,138.81,18,162,24.59,164.06s10.35-2.07,17,1.66,19,8.69,24,11.59,34.77,14.07,42.64,19.46,31,14.48,36.84,17,21.52,8.69,30.63,12.83,34.77,12,44.29,15.31,33.12,7.46,37.25,10.35,19.46,6.63,22.36,6.63a40.1,40.1,0,0,1,16.14,4.55c6.21,3.31,31.87,8.28,31.87,8.28s9.94,106.79,19.46,123.77,19,37.66,28.15,50.5,17,21.11,24.83,13.24,22.36-23.59,24.43-26.9,10.76-6.63,12.41-12.84,6.21-9.1,9.52-17,5.8-2.9,5.8-14.9a15.66,15.66,0,0,1,2.47-9.13c0-1.92.07-3.85.06-5.75,0-1.1,0-2.23-.09-3.2l0-.56a5,5,0,0,0-.11-.7l-.3-1.75c-.74-4.61-1.42-9.18-2-13.81l-.37-3.5-.15-1.79,0-.89a2,2,0,0,0-.06-.49,17.26,17.26,0,0,0-3.14-5.39,94.78,94.78,0,0,0-9.35-10,95.65,95.65,0,0,1,11.05,8.45,19.72,19.72,0,0,1,4.73,5.83,5.86,5.86,0,0,1,.36,1.18l.18.81.41,1.61.92,3.27c1.3,4.36,2.72,8.74,4.19,13.05l.56,1.59a6.71,6.71,0,0,1,.31,1c.06.25.1.44.14.62,8.4,2.42,11.28,1.72,22,4.87,15.52,4.56,30.07-11.15,26.68-23.32-2.32-8.31-10.53-28-15.5-39.6l-2.44-.41q-20.1-3.56-40.07-7.61,20.29,1.88,40.6,3.27l5.61.35c33.55.07,91.85-.31,101.15.93,12.42,1.65,39.33,4.14,66.23-1.24s57.54-12,66.65-12.42,38.91-9.52,43.46-11.59,23.18-15.73,31.46-17.8,60.85-20.7,71.2-26.49,45.53-27.32,52.16-35.19,20.69-14.48,25.66-17.8,12.83-7.86,25.25-15.73,16.14-11.59,21.11-14.07a29.1,29.1,0,0,0,6.93-5.38c-9.26-1.86-18.62-3.44-28-4.62,13.52-1.59,25.47-.68,33.62,1.3,10.94,2.65,22.44,2.35,33.67,4.93v0c8.43,1.3,16.19,2.63,20.47,3.74,12.84,3.31,50.09,12.42,56.3,14.49S1172.44,181,1177,183.11s30.64,2.89,41.81,4.14,33.53,4.13,34.36.41S1238.26,174,1218.8,159.93Z"/></g></g></svg>