<svg xmlns="http://www.w3.org/2000/svg" viewBox="0 0 116.7 31.55"><g id="Layer_2" data-name="Layer 2"><g id="Layer_1-2" data-name="Layer 1"><path d="M.92,21.05c-.05-.18.4-.76.35-1.08s-.7-.54-.82-.88a6,6,0,0,1,0-4.68c1.53-4,4.5-3.31,7.87-3.9s5.87-1.24,9-1.72c3.34-.51,6.89-.21,10-1.11,1.63-.47,3.23-1.8,4.76-2.57,5.22-2.65,10.31-7.63,16.42-3.58C46.68.68,45.5,2.75,46.06,4.3s2.17,2.18,3.64,2.58c3.16.83,6.6,1.28,9.85,2.14a109.1,109.1,0,0,0,21.2,3,50.4,50.4,0,0,1,15.8,3.46,22.15,22.15,0,0,1,3.9,2.15c1.13.74,1.93,1.92,3,2.57,2.44,1.49,5.5-1.81,7.91.11-1.16.26-1.71,1.62-2.95,2,.5.61,1.45.88,2.06,1.45a14.9,14.9,0,0,1,1.82,2.35c1.17,1.72,2.26,3.43,4.42,4-1.2-.56-3.43-.56-4.91-1a34.35,34.35,0,0,1-4.91-1.88c-1.6-.79-2.61-2-4.29-1.77-.73.08-1.48.72-2.19.81a15.83,15.83,0,0,1-2.73-.17c-7.49-.38-14.94.67-22.49.23-15.73-.92-32.06,3.37-47.69.62,1.33.73,3,1,4.2,1.67-3.1.93-6.92-.74-9.57-2.28-.22,1.9,6.23,4.22,7.86,4.51-1.27,1.5-6.12,0-7.74-.41a10.29,10.29,0,0,1-6.6-4.54c-.39-.69,0-1.14-.84-1.47-.45-.17-1.65.43-2.15.4-1.45-.09-2.8-.56-4.28-.65C5.56,24.05,1.77,24.14.92,21.05Z"/></g></g></svg>