<svg xmlns="http://www.w3.org/2000/svg" viewBox="0 0 1510.79 284.87"><defs><style>.cls-1{fill:#231f20;}</style></defs><g id="Layer_2" data-name="Layer 2"><g id="icons"><path class="cls-1" d="M30.39,140.87c8-5,42-11,42-11-16-5-24-22-24-22s-20-1-23-4,2-5,3-6,16-5,19-6,49-14,58-18,102-28,104-30,13-4,17-6,18,2,25,3,55-5,61-5,204-21,228-26,164.5-11.5,228.5-9.5,222,23,222,23,11.5,2.5,31.5,3.5,50-9,50-9c41-22,73-17,73-17s-20,10-19,21,33,16,42,20,105,24,143,30,104,39,104,39c27-21,72-9,70-8s-6,18-6,26c0,3.78-2.68,6-5.51,7.29q-2.7-.6-5.41-1.08a91.17,91.17,0,0,0-12.09-1.4,34.71,34.71,0,0,0-12,1.19A33.34,33.34,0,0,1,1456,136.4a86.77,86.77,0,0,1,11,3.95c2.56,1.11,5.09,2.3,7.57,3.57,11.3,14.61,17.07,47.43,17.91,50,1,3,10,21,15,28s3,7,3,7c-45-11.06-86.94-52.08-102.55-68.82a64.81,64.81,0,0,0-7-9,94.39,94.39,0,0,0-10.35-9.24,127.22,127.22,0,0,0-11.23-7.6,125.54,125.54,0,0,0-11.83-6.31,126.33,126.33,0,0,1,10.18,8.51,122.26,122.26,0,0,1,9.11,9.41,90.56,90.56,0,0,1,6.85,9.13c-96.87,25.05-129.34,26.9-137.14,25-8-2-98,5-114,6s-130,33-146,38-214,22-239,23c-21.71.87-137.66,6.26-167.81,7.67q-1.51-1.9-3.08-3.75c-4.92-5.83-10.17-11.3-15.56-16.57q-4.07-3.94-8.24-7.75l-4.18-3.77c-1.38-1.27-2.85-2.46-4.13-3.83,1.11,1.53,2.42,2.88,3.64,4.31l3.69,4.25c2.44,2.85,4.84,5.72,7.18,8.64,4.67,5.84,9.15,11.81,13.19,18l.51.78h-.21s4.39,6.94,8.29,14.14c.68,1.41,1.34,2.83,2,4.25a65.06,65.06,0,0,1,3.33,10c.1.43.19.87.28,1.3a1,1,0,0,1-.85.35c-6,0-64-30-64-30H531c-2.57-1.4-5.12-2.86-7.62-4.39a145.1,145.1,0,0,1-12.82-9,114.38,114.38,0,0,1-21.82-22.4,102.67,102.67,0,0,1-14.5-28c-.85-2.52-1.61-5.08-2.32-7.66l-.54-2a20.79,20.79,0,0,0-.7-2,15.21,15.21,0,0,0-2.18-3.66,13.6,13.6,0,0,0-7-4.47,19.43,19.43,0,0,0-8.09-.47,19.13,19.13,0,0,1,7.86,1.16,12.56,12.56,0,0,1,6,4.65,13.11,13.11,0,0,1,1.63,3.42c.19.61.34,1.23.47,1.85l.37,2c.49,2.65,1,5.32,1.7,8a106.78,106.78,0,0,0,12.6,30.3,121.06,121.06,0,0,0,21.06,25.6c2.56,2.38,5.21,4.65,7.93,6.85-51-.68-192.23-3.06-212.65-8.78-25-7-184-37-187-38s-51-10-59-14-35-14-38-15-7,0-14-7C-8.79,160.69,22.39,145.87,30.39,140.87Z"/></g></g></svg>