<svg xmlns="http://www.w3.org/2000/svg" viewBox="0 0 1249.75 563.17"><defs><style>.cls-1{fill:#231f20;}</style></defs><g id="Layer_2" data-name="Layer 2"><g id="icons"><path class="cls-1" d="M2.38,342.63c2.87-7.18,0-37.3,40.13-53.11l.14-.06c1.08-.52,18.26-8.44,51.56-4.3l.19,0c1.64.09,26.06,1.38,34.38,0,8.62-1.43,44.53-4.31,53.15-4.31S230.77,278,233.64,278s41.66-10.05,66.08-7.18,48.83,8.62,53.14,8.62,21.55-5.75,34.48-5.75H417.5c21.55,0,61.77-4.31,71.82-4.31s53.15-5.74,80.44-8.62,50.27-8.62,67.51-11.49,54.58-15.8,63.2-18.67,15.8-15.8,25.86-20.11,21.54-4.31,35.91-2.87,34.47,5.74,44.53,7.18,20.11,0,21.54,0,1.44-7.18,7.18-7.18S852.73,209,857,206.17s12.93-5.75,20.11-5.75,7.18-8.61,12.93-8.61,8.62-4.31,12.93-5.75,27.29-23,33-28.73,7.18-12.93,18.68-17.23,28.72-17.24,31.6-20.11h0s14.36-11.5,20.11-15.8,1.43-10.06,4.31-18.68-2.88-18.67-2.88-27.29,8.62-14.36,2.88-23,0-20.11-2.88-25.86,7.19-11.49,8.62-8.62S1025.1,8,1028,10.82s33,12.93,35.91,18.67,27.29,15.8,34.48,24.42c3.76,4.52,5.68,5.71,8,7.11a23.93,23.93,0,0,0-6.36.71c-8.2,2.36-21.9,10.13-19.87,9.51a157.74,157.74,0,0,1,22.48-4.73c5.21-.73,10.46-1.31,15.73-1.77,7.37.73,18.46,1.58,23.07.66,7.18-1.43,18.67,2.88,24.42,8.62a18.55,18.55,0,0,0,14.36,5.75c2.87,0,11.49,2.87,14.37,8.61s15.8,5.75,20.11,7.19,1.43,2.87,8.61,8.62,5.75,10,7.19,14.36,23,24.42,18.67,30.16-20.11-10.05-48.84-21.54c-28-11.19-72.25-11.49-74.59-11.49h-.18c-66,4.06-80.16,25.79-81.65,28.46l-.22.48c-2.11,6.2-49.31,143.52-104.07,178.62-56,35.91-68.94,41.65-68.94,41.65s-52.43,26.58-62.49,33.76S699,457.54,693.29,459c-3.94,1-7.21,4.67-8.87,6.89a3.11,3.11,0,0,1-3.25,1.15,29.1,29.1,0,0,0-6.55-.86c-3.54,0-64.3,16.48-87.44,22.36a8.67,8.67,0,0,1-7.63-1.67,118.53,118.53,0,0,0-10-7.32c-1.15-.77-2.36-1.47-3.53-2.2s-2.36-1.45-3.59-2.1l-3.63-2L555,471.43c-2.45-1.27-5-2.25-7.54-3.34s-5.14-1.9-7.7-2.86c2.42,1.29,4.87,2.48,7.23,3.83s4.72,2.69,7,4.24l3.38,2.25,3.27,2.39c1.1.78,2.15,1.62,3.19,2.48s2.06,1.72,3.11,2.56c12.17,9.75,21.51,23.1,21.51,23.1,10.84,16.25,24.91,40.94,12.92,52-18.67,17.24-87.62-14.36-103.42-21.55-15-6.8-53.14-34.23-57.12-37.1a3.25,3.25,0,0,0-.76-.4c-2.47-.9-15.25-5.15-26.87-1.28-12.93,4.31-38.78,11.49-46,15.8s-17.24,0-25.86-1.44-21.54-1.43-25.85,0-30.17,1.44-40.22-2.87-41.66-10.05-44.53-10.05-35.91-1.44-47.4-1.44-71.82-1.44-83.31-1.44c-9.07,0-44.56-2-55.27-10.53-2.59-2.08-10-15.71,2-14.68,19.47,1.66,43.7,2.42,51.83.79,9.45-1.89-31.51-10-61-15.33A41.85,41.85,0,0,1,5.55,429.35,107,107,0,0,1,.94,411.58C-.49,403-.49,349.81,2.38,342.63Z"/></g></g></svg>